<svg fill="none" height="512" viewBox="0 0 30720 512" width="30720" xmlns="http://www.w3.org/2000/svg"><g fill="#fff"><path d="m262.096 209.429 126.696-55.849c4.282-1.921 2.911-9.325-1.782-9.325h-259.704c-4.693 0-6.064 7.404-1.782 9.325l126.696 55.849c3.141 1.409 6.735 1.409 9.876 0z"/><path d="m266.752 234.78.248 126.934c.133 8.553 8.65 10.1 13.534 2.979l117.783-182.483c3.333-5.48-1.955-11.717-9.73-8.041l-117.362 52.885c-3.693 1.845-4.473 3.929-4.473 7.726z"/><path d="m247.126 234.78-.248 126.934c-.133 8.553-8.65 10.1-13.534 2.979l-102.883-159.399-2.207-3.419-1.874-2.904-.055-.085-10.764-16.676c-3.333-5.48 1.955-11.717 9.73-8.041l117.362 52.885c.22.11.43.221.63.333 1.506.844 2.45 1.752 3.025 2.861.63 1.214.818 2.666.818 4.532z"/><path d="m785.033 210.454 109.424-57.745c4.181-2.314 2.553-9.257-2.157-9.257l-254.114 7.555c-4.71 0-6.086 7.349-1.788 9.256l137.94 51.649c3.153 1.399 7.31 1.342 10.695-1.458z"/><path d="m789.718 235.947-7.364 124.622c.133 8.49 6.885 10.755 11.787 3.686l110.636-185.254c3.306-5.805-1.533-11.429-8.821-7.253l-101.749 56.028c-3.228 1.778-4.397 4.743-4.489 8.171z"/><path d="m770.844 237.337-7.304 124.337c-.466 8.168-10.064 10.113-14.965 3.044l-105.539-153.348-2.3-3.327-1.954-2.825-.057-.083-11.22-16.224c-3.345-5.44 1.962-11.631 9.766-7.982l128.72 48.579c.221.109.487.203.69.308 1.442.758 2.5 1.576 3.14 2.629.73 1.18 1.144 2.932 1.023 4.892z"/><path d="m1309.69 214.811 89.37-59.939c4.06-2.76 2.14-9.186-2.59-9.186l-247.52 16.114c-4.72 0-6.11 7.294-1.79 9.187l150.89 46.934c3.16 1.388 7.97 1.268 11.64-3.11z"/><path d="m1314.4 240.486-16.17 122.104c.13 8.426 4.84 11.506 9.76 4.49l102.31-188.542c3.27-6.176-1.05-11.111-7.77-6.366l-83.62 59.633c-2.69 1.703-4.31 5.667-4.51 8.681z"/><path d="m1296.41 243.451-15.47 121.497c-.85 7.738-11.69 10.137-16.61 3.121l-108.57-146.622-2.4-3.224-2.05-2.739-.06-.08-11.74-15.725c-3.36-5.399 1.97-11.544 9.8-7.922l141.81 43.742c.22.108.55.182.76.279 1.37.661 2.56 1.379 3.27 2.37.85 1.142 1.52 3.234 1.26 5.303z"/><path d="m1832.76 219.17 71.81-61.831c3.95-3.143 1.77-9.129-2.97-9.129l-241.7 23.454c-4.74 0-6.13 7.248-1.8 9.128l162.19 42.905c3.18 1.379 8.55 1.205 12.47-4.527z"/><path d="m1837.5 245.006-23.88 119.974c.13 8.373 3.05 12.152 7.98 5.18l95-191.4c3.25-6.497-.61-10.842-6.84-5.609l-67.74 62.736c-2.22 1.639-4.23 6.461-4.52 9.119z"/><path d="m1820.28 249.321-22.61 119.09c-1.19 7.372-13.13 10.159-18.06 3.187l-111.19-140.889-2.5-3.138-2.12-2.664-.06-.078-12.2-15.302c-3.37-5.365 1.97-11.47 9.83-7.872l153.24 39.607c.22.108.6.165.82.255 1.29.578 2.6 1.209 3.38 2.147.95 1.11 1.85 3.495 1.47 5.657z"/><path d="m2353.64 222.834 57.72-63.314c3.88-3.445 1.49-9.082-3.27-9.082l-237.04 29.239c-4.76 0-6.15 7.21-1.81 9.081l171.28 39.719c3.18 1.372 9.01 1.154 13.12-5.643z"/><path d="m2358.4 248.793-30.06 118.272c.13 8.33 1.61 12.659 6.56 5.723l89.14-193.622c3.22-6.748-.27-10.627-6.1-5.009l-55.01 65.171c-1.83 1.589-4.16 7.087-4.53 9.465z"/><path d="m2341.8 254.172-28.34 117.17c-1.46 7.082-14.27 10.175-19.22 3.24l-113.29-136.344-2.58-3.068-2.19-2.606-.06-.077-12.56-14.964c-3.38-5.337 1.98-11.411 9.85-7.831l162.41 36.338c.23.107.66.151.87.236 1.25.513 2.64 1.075 3.48 1.971 1.03 1.084 2.11 3.7 1.63 5.935z"/><path d="m2872.43 225.869 46.97-64.412c3.81-3.671 1.26-9.044-3.5-9.044l-233.52 33.588c-4.76 0-6.15 7.18-1.81 9.043l178.23 37.308c3.19 1.366 9.37 1.116 13.63-6.483z"/><path d="m2877.21 251.914-34.79 116.957c.13 8.295.51 13.037 5.47 6.131l84.68-195.241c3.2-6.936-.01-10.463-5.53-4.557l-45.29 66.989c-1.55 1.55-4.12 7.554-4.54 9.721z"/><path d="m2861.08 258.092-32.73 115.692c-1.66 6.861-15.14 10.184-20.09 3.278l-114.93-132.882-2.63-3.015-2.24-2.561-.06-.075-12.85-14.707c-3.38-5.314 1.99-11.363 9.88-7.798l169.44 33.866c.22.107.68.141.9.222 1.21.463 2.67.974 3.55 1.838 1.09 1.064 2.31 3.852 1.76 6.142z"/><path d="m3389.36 228.362 39.18-65.18c3.76-3.832 1.1-9.013-3.68-9.013l-230.98 36.696c-4.77 0-6.17 7.157-1.81 9.013l183.29 35.567c3.19 1.362 9.63 1.088 14-7.083z"/><path d="m3394.15 254.459-38.22 115.977c.14 8.267-.28 13.304 4.68 6.421l81.46-196.339c3.19-7.069.17-10.342-5.12-4.231l-38.25 68.27c-1.34 1.522-4.08 7.888-4.55 9.902z"/><path d="m3378.36 261.21-35.9 114.594c-1.82 6.701-15.78 10.187-20.75 3.304l-116.12-130.355-2.67-2.976-2.27-2.528-.07-.074-13.05-14.517c-3.39-5.297 1.99-11.325 9.89-7.772l174.56 32.082c.22.106.71.133.93.211 1.18.427 2.7.901 3.6 1.742 1.14 1.05 2.46 3.961 1.85 6.289z"/><path d="m3904.67 230.382 33.97-65.666c3.73-3.937.99-8.989-3.79-8.989l-229.33 38.744c-4.78 0-6.17 7.138-1.81 8.99l186.71 34.399c3.2 1.358 9.8 1.069 14.25-7.478z"/><path d="m3909.47 256.504-40.52 115.284c.13 8.245-.82 13.477 4.15 6.612l79.31-196.997c3.18-7.154.31-10.257-4.85-4.013l-33.54 69.095c-1.19 1.503-4.06 8.107-4.55 10.019z"/><path d="m3893.9 263.632-38.03 113.824c-1.92 6.592-16.21 10.185-21.18 3.32l-116.94-128.632-2.7-2.949-2.3-2.505-.07-.074-13.19-14.385c-3.39-5.283 1.99-11.296 9.91-7.752l178.01 30.887c.22.106.73.128.95.204 1.15.403 2.71.852 3.63 1.677 1.17 1.041 2.56 4.032 1.91 6.385z"/><path d="m4418.56 231.981 31.02-65.91c3.72-3.995.93-8.972-3.85-8.972l-228.44 39.882c-4.78 0-6.18 7.124-1.82 8.973l188.7 33.724c3.2 1.356 9.9 1.059 14.39-7.697z"/><path d="m4423.37 258.106-41.84 114.841c.14 8.23-1.12 13.568 3.86 6.717l78.1-197.279c3.18-7.198.38-10.205-4.69-3.888l-30.87 69.529c-1.12 1.491-4.05 8.227-4.56 10.08z"/><path d="m4407.93 265.443-39.26 113.338c-1.98 6.528-16.46 10.18-21.43 3.328l-117.43-127.602-2.72-2.933-2.31-2.491-.06-.073-13.28-14.305c-3.39-5.273 2-11.274 9.92-7.737l180 30.199c.23.106.74.125.96.2 1.15.39 2.73.824 3.66 1.64 1.18 1.035 2.62 4.071 1.95 6.436z"/><path d="m4928.77 233.237 34.02-65.454c3.74-3.925.99-8.961-3.79-8.961l-229.68 38.62c-4.79 0-6.19 7.115-1.82 8.961l187 34.288c3.2 1.354 9.81 1.066 14.27-7.454z"/><path d="m4934.49 259.29-41.22 114.802c.13 8.219-.97 13.492 4.01 6.649l78.79-196.691c3.19-7.16.34-10.208-4.77-3.942l-32.25 69.155c-1.16 1.494-4.05 8.149-4.56 10.027z"/><path d="m4918.97 266.505-38.69 113.324c-1.95 6.545-16.35 10.16-21.32 3.317l-117.31-127.827-2.71-2.934-2.31-2.493-.07-.073-13.24-14.313c-3.4-5.266 1.99-11.26 9.92-7.727l179.19 30.474c.23.106.74.126.96.202 1.15.395 2.72.836 3.65 1.655 1.18 1.035 2.59 4.042 1.93 6.395z"/><path d="m5437.55 234.159 39.3-64.754c3.77-3.807 1.1-8.954-3.69-8.954l-231.7 36.456c-4.79 0-6.19 7.11-1.82 8.954l183.87 35.334c3.2 1.353 9.65 1.081 14.04-7.036z"/><path d="m5443.97 260.11-39.47 115.024c.14 8.213-.55 13.32 4.43 6.482l80.59-195.631c3.2-7.073.25-10.245-4.99-4.1l-36 68.318c-1.27 1.504-4.08 7.955-4.56 9.907z"/><path d="m5428.25 267.011-37.06 113.61c-1.87 6.612-16.03 10.133-21.01 3.295l-116.82-128.817-2.69-2.947-2.29-2.504-.07-.073-13.15-14.375c-3.4-5.263 1.99-11.252 9.92-7.722l176.71 31.323c.23.105.72.129.94.206 1.17.413 2.71.872 3.63 1.701 1.15 1.04 2.52 3.976 1.89 6.303z"/><path d="m5944.7 234.78 47.19-63.762c3.83-3.633 1.27-8.952-3.52-8.952l-234.64 33.248c-4.79 0-6.18 7.108-1.82 8.952l179.09 36.931c3.2 1.352 9.41 1.105 13.7-6.417z"/><path d="m5951.54 260.593-36.38 115.529c.14 8.211.18 13.035 5.16 6.199l83.67-193.998c3.22-6.931.07-10.321-5.38-4.381l-42.51 66.939c-1.46 1.525-4.12 7.628-4.56 9.712z"/><path d="m5935.49 266.957-34.2 114.225c-1.74 6.735-15.48 10.097-20.46 3.261l-115.9-130.67-2.66-2.972-2.26-2.525-.07-.074-12.98-14.5c-3.4-5.261 1.99-11.248 9.92-7.719l172.3 32.826c.22.106.7.137.92.216 1.2.444 2.69.935 3.58 1.782 1.12 1.049 2.39 3.864 1.81 6.15z"/><path d="m6449.96 235.105 58.12-62.436c3.89-3.396 1.49-8.955-3.3-8.955l-238.63 28.832c-4.79 0-6.18 7.111-1.82 8.956l172.42 39.168c3.21 1.353 9.08 1.138 13.21-5.565z"/><path d="m6456.93 260.738-31.77 116.369c.13 8.214 1.26 12.621 6.24 5.782l88.23-191.714c3.24-6.724-.19-10.442-5.95-4.802l-52.18 64.937c-1.76 1.557-4.18 7.147-4.57 9.428z"/><path d="m6440.39 266.305-29.94 115.229c-1.54 6.923-14.64 10.05-19.62 3.212l-114.51-133.527-2.61-3.013-2.21-2.559-.07-.075-12.73-14.694c-3.4-5.263 1.99-11.253 9.92-7.723l165.68 35.092c.22.105.66.145.88.228 1.24.49 2.67 1.029 3.52 1.904 1.06 1.064 2.19 3.702 1.69 5.926z"/><path d="m6953.1 235.121 72.44-60.734c3.99-3.087 1.79-8.967-3-8.967l-243.8 23.037c-4.78 0-6.18 7.12-1.81 8.967l163.6 42.143c3.2 1.355 8.63 1.183 12.57-4.446z"/><path d="m6959.85 260.53-25.45 117.607c.13 8.224 2.75 12.061 7.72 5.214l94.47-188.71c3.26-6.444-.55-10.615-6.73-5.384l-65.45 62.229c-2.15 1.601-4.24 6.491-4.56 9.044z"/><path d="m6942.63 265.007-24.08 116.69c-1.26 7.186-13.48 9.994-18.46 3.146l-112.56-137.55-2.54-3.07-2.16-2.608-.06-.076-12.38-14.974c-3.4-5.269 1.99-11.266 9.92-7.732l156.54 38.231c.22.106.62.159.83.247 1.3.554 2.64 1.159 3.44 2.072.97 1.086 1.92 3.482 1.51 5.624z"/><path d="m7454 234.823 90.34-58.633c4.11-2.7 2.17-8.987-2.61-8.987l-250.21 15.764c-4.78 0-6.18 7.135-1.82 8.986l152.54 45.912c3.19 1.358 8.05 1.241 11.76-3.042z"/><path d="m7460.17 259.961-17.33 119.276c.14 8.242 4.66 11.344 9.64 4.482l102.45-184.94c3.3-6.087-1-10.845-7.73-6.139l-82.48 58.768c-2.65 1.659-4.34 5.647-4.55 8.553z"/><path d="m7442.08 263.031-16.54 118.647c-.9 7.53-12 9.927-16.97 3.064l-110.03-142.83-2.45-3.146-2.08-2.671-.06-.079-11.92-15.342c-3.39-5.281 1.99-11.292 9.91-7.749l144.75 42.308c.23.106.57.177.78.271 1.37.637 2.59 1.328 3.32 2.292.86 1.114 1.57 3.199 1.29 5.235z"/><path d="m7953.25 234.17 110.87-56.245c4.24-2.253 2.59-9.016-2.18-9.016l-257.49 7.358c-4.77 0-6.17 7.159-1.81 9.017l139.77 50.307c3.19 1.362 7.41 1.307 10.84-1.421z"/><path d="m7958.56 259.01-7.86 121.316c.14 8.27 6.89 10.512 11.85 3.627l111.72-180.647c3.34-5.672-1.54-11.122-8.89-7.028l-102.27 54.749c-3.25 1.729-4.45 4.661-4.55 7.983z"/><path d="m7939.48 260.433-7.77 121.024c-.49 7.94-10.27 9.855-15.23 2.97l-107.06-149.122-2.34-3.237-1.98-2.749-.06-.08-11.39-15.786c-3.39-5.299 1.99-11.329 9.9-7.775l130.99 47.122c.23.106.5.196.71.298 1.45.734 2.53 1.527 3.18 2.551.75 1.148 1.18 2.869 1.05 4.784z"/><path d="m8454.17 233.072 128.61-54.243c4.35-1.866 2.96-9.057-1.81-9.057h-263.62c-4.76 0-6.16 7.191-1.81 9.057l128.61 54.243c3.19 1.368 6.84 1.368 10.02 0z"/><path d="m8458.9 257.694.25 123.283c.14 8.306 8.78 9.809 13.74 2.893l119.56-177.234c3.38-5.322-1.98-11.38-9.88-7.81l-119.13 51.364c-3.75 1.792-4.54 3.816-4.54 7.504z"/><path d="m8438.98 257.694-.25 123.283c-.14 8.306-8.78 9.809-13.74 2.893l-104.44-154.814-2.24-3.321-1.9-2.82-.06-.083-10.92-16.196c-3.38-5.322 1.98-11.38 9.88-7.81l119.13 51.364c.22.107.43.215.64.324 1.53.819 2.48 1.701 3.07 2.778.64 1.179.83 2.59.83 4.402z"/><path d="m8946.72 229.305 147.31-49.919c4.41-1.732 3.12-9.142-1.56-9.282l-250.35-4.473c-4.47-.067-6.19 6.129-2.87 8.164l98.29 54.871c2.42 1.463 5.85 1.893 9.18.639z"/><path d="m8949.66 254.014 18.28 126.492c.85 7.86 9.67 9.379 14.61 2.422l120.48-176.365c3.38-5.353-1.98-11.447-9.85-7.855l-138.99 47.758c-3.74 1.802-4.53 3.838-4.53 7.548z"/><path d="m8931.59 254.176 17.98 125.91c-.13 8.356-7.75 9.868-12.69 2.911l-98.15-161.028-2.04-3.453-1.73-2.935-.05-.085-9.96-16.847c-3.37-5.353 1.98-11.447 9.86-7.855l92.63 55.834c.15.072.31.193.44.266 1.02.549 2.22 2.382 2.6 3.104.43.791 1.11 2.962 1.11 4.178z"/><path d="m9439.39 224.951 165.8-45.616c4.46-1.599 3.29-9.243-1.32-9.525l-236.97-9.012c-4.17-.134-6.22 5.061-3.92 7.272l68.07 55.592c1.66 1.562 4.87 2.428 8.34 1.289z"/><path d="m9440.55 249.785 36.19 129.941c1.57 7.419 10.54 8.956 15.47 1.948l121.31-175.758c3.37-5.393-1.97-11.532-9.82-7.914l-158.63 44.178c-3.73 1.816-4.52 3.867-4.52 7.605z"/><path d="m9424.32 250.112 36.11 128.769c-.14 8.419-6.71 9.942-11.64 2.933l-91.83-167.575-1.84-3.594-1.57-3.054-.04-.088-8.98-17.532c-3.36-5.394 1.98-11.533 9.82-7.914l66.22 60.451c.07.036.18.171.25.208.51.277 1.94 3.076 2.13 3.44.21.398 1.37 3.344 1.37 3.956z"/><path d="m9951.39 224.951 165.81-45.616c4.5-1.599 3.3-9.243-1.3-9.525l-237-9.012c-4.17-.134-6.22 5.061-3.92 7.272l68.07 55.592c1.66 1.562 4.87 2.428 8.34 1.289z"/><path d="m9952.55 249.785 36.19 129.941c1.57 7.419 10.54 8.956 15.46 1.948l121.3-175.758c3.4-5.393-1.9-11.532-9.8-7.914l-158.63 44.178c-3.73 1.816-4.52 3.867-4.52 7.605z"/><path d="m9936.32 250.112 36.11 128.769c-.14 8.419-6.71 9.942-11.64 2.933l-91.83-167.575-1.84-3.594-1.57-3.054-.04-.088-8.98-17.532c-3.36-5.394 1.98-11.533 9.82-7.914l66.22 60.451c.07.036.18.171.25.208.51.277 1.94 3.076 2.13 3.44.21.398 1.37 3.344 1.37 3.956z"/><path d="m10425.3 214.026 201.9-37.023c4.5-1.335 3.6-9.504-.9-10.08l-209.9-18.401c-3.5-.276-6.2 2.893-5.9 5.476l8.1 57.396c.2 1.774 2.9 3.541 6.7 2.632z"/><path d="m10422.9 239.261 71.5 137.78c3 6.554 12.3 8.14 17.1.984l122.7-175.514c3.3-5.507-2-11.775-9.8-8.081l-197 37.067c-3.7 1.854-4.5 3.948-4.5 7.764z"/><path d="m10411.1 238.564 69.8 141.158c-.1 4.297-3.7.333-8.8-5.911 0 0-68.5-128.968-69.7-132.363-1.7-5.027 3.5-4.303 3.5-4.303l-6.3-19.652-4.2-.517-6.3-43.828c.1-9.207 5.9-11.845 8.3-11.221l7.6 52.102-5.5 3.482 6.4 19.626z"/><path d="m10923.6 207.459 214.3-33.021c4.6-1.204 3.8-9.673-.6-10.404l-191.2-23.01c-3.3-.35-6.3 1.781-7 4.567l-21.3 58.531c-.6 1.891 2 4.131 5.8 3.337z"/><path d="m10914.6 232.673 88.7 142.326c3.7 6.13 13.1 7.746 17.9.488l123.1-176.009c3.3-5.585-2-11.942-9.7-8.195l-215.6 33.515c-3.7 1.881-4.4 4.005-4.4 7.875z"/><path d="m11427.5 198.536 221.4-27.023c4.6-.992 3.9-9.246-.4-10.091l-176.9-28.328c-3-.404-5.7 1.316-6.6 3.759l-42.5 57.826c-1.3 1.893 1 4.483 5 3.857z"/><path d="m11417.5 224.053 95.5 147.909c4.5 6.237 14.7 9.218 21.8.496l121.9-175.125c3.4-5.682-1.9-12.149-9.7-8.338l-225 27.047c-3.7 1.913-4.5 4.074-4.5 8.011z"/><path d="m11931.7 188.074 227.9-20.881c4.7-.777 4.1-8.835-.1-9.8l-162.6-33.946c-2.7-.462-5 .837-6.2 2.932l-63.1 57.285c-2.1 1.902 0 4.863 4.1 4.41z"/><path d="m11920.8 213.991 102 154.197c5.2 6.368 16.3 10.778 25.6.507l120.6-174.787c3.3-5.802-2-12.405-9.8-8.513l-233.8 20.416c-3.8 1.954-4.6 4.16-4.6 8.18z"/><path d="m12436.3 175.898 233.8-14.517c4.7-.554 4.2-8.428.1-9.523l-148.2-39.917c-2.4-.524-4.4.339-5.8 2.076l-83.2 56.88c-2.8 1.916-.9 5.273 3.3 5.001z"/><path d="m12424.6 202.305 108 161.206c6 6.523 17.9 12.439 29.3.519l119-174.923c3.4-5.943-2-12.707-9.8-8.72l-242 13.54c-3.7 2-4.5 4.26-4.5 8.378z"/><path d="m12941 162.678 239.7-7.818c4.6-.319 4.2-7.986.3-9.214l-134.2-46.0957c-2.1-.5873-3.7-.1846-5.4 1.1747l-102.9 56.343c-3.4 1.927-1.8 5.694 2.5 5.61z"/><path d="m12928.5 189.549 114 168.234c6.7 6.672 19.4 14.156 32.8.531l117.5-174.722c3.4-6.08-1.9-12.999-9.8-8.921l-250 6.307c-3.7 2.047-4.5 4.359-4.5 8.571z"/><path d="m13445.1 150.928 246.9-.794c4.7-.072 4.4-7.421.6-8.77l-121.3-51.85c-1.8-.6451-3.1-.7223-5 .2274l-122.9 55.0236c-4.1 1.913-2.7 6.051 1.7 6.163z"/><path d="m13431.7 177.911 120.7 173.206c7.4 6.736 21 15.737 36.5.536l116.8-172.14c3.4-6.138-2.1-13.124-10-9.006l-259.4-1.249c-3.8 2.066-4.6 4.4-4.6 8.653z"/><path d="m13957 139.802 237.8 8.377c5 .255 4.8-6.816 1.6-8.558l-100.8-53.8822c-1.8-.6564-2.7-1.2939-4.6-.3275l-135.7 48.1197c-4.1 1.946-2.7 6.157 1.7 6.271z"/><path d="m13944.8 167.274 121.1 177.42c6.7 6.725 18.7 13.763 32 .033l107.7-166.128c3.4-6.126-1.2-13.214-9.2-10.163l-247.1-9.799c-3.7 2.062-4.5 4.392-4.5 8.637z"/><path d="m14468.6 133.411 229.2 17.43c5.3.577 5.3-6.183 2.7-8.307l-80.5-55.6304c-1.9-.6645-2.4-1.8543-4.3-.8762l-148.8 41.0376c-4.1 1.97-2.7 6.231 1.7 6.346z"/><path d="m14457.5 161.234 121.8 180.722c6 6.68 16.5 11.739 27.7-.467l98.9-159.346c3.3-6.085-.6-13.239-8.6-11.261l-235.3-18.228c-3.7 2.049-4.5 4.363-4.5 8.58z"/><path d="m14979.7 131.998 221.4 26.146c5.7.888 5.8-5.512 3.9-7.992l-60.4-56.8889c-1.9-.6669-2-2.3874-3.9-1.4058l-162.7 33.7727c-4.2 1.977-2.7 6.252 1.7 6.368z"/><path d="m14969.8 159.936 123 182.482c5.1 6.581 14.2 9.661 23.3-.953l90.3-151.41c3.3-5.996.2-13.157-7.9-12.244l-224.3-26.328c-3.7 2.019-4.4 4.299-4.4 8.453z"/><path d="m15490.1 134.492 214.7 34.18c6.1 1.174 6.3-4.801 5-7.592l-40.2-57.391c-1.8-.661-1.4-2.869-3.4-1.896l-177.9 26.389c-4.2 1.959-2.7 6.195 1.8 6.31z"/><path d="m15481.2 162.195 125 181.912c4.4 6.405 12 7.549 19-1.407l82.1-141.929c3.3-5.835 1-12.913-7.3-13.033l-214.4-33.769c-3.6 1.964-4.4 4.183-4.4 8.226z"/><path d="m16000.1 140.55 208.4 41.455c6.4 1.435 6.8-4.094 6.2-7.154l-19.4-57.396c-1.9-.65-1.1-3.298-3.1-2.342l-193.9 19.232c-4.3 1.927-2.8 6.092 1.8 6.205z"/><path d="m15992.3 167.806 127.3 179.893c3.6 6.187 9.8 5.503 14.6-1.821l73.9-131.859c3.3-5.636 1.8-12.58-6.6-13.67l-204.8-40.49c-3.7 1.898-4.4 4.042-4.4 7.947z"/><path d="m16214.3 213.54-75.5 135.993c.4.79 4-.11 6.2-3.608l72.8-130.59.7-3.558 2.1-35.679.7-.646-14.3-41.467c-1-3.767-2.9-6.209-5-6.599l17.1 49.022 1.4-.283-2 35.579z"/><path d="m16512.8 148.823 187 45.895c6.2 1.112 6.7-3.16 7.7-5.819l13.8-56.311c-1.9-.636-.7-3.664-2.6-2.727l-207.6 12.886c-4.4 1.886-2.9 5.966 1.7 6.076z"/><path d="m16504 175.242 124.2 178.532c3.7 6.017 10.2 4.982 15.1-2.141l53.4-126.851c2.6-5.678-.3-12.005-8-13.17l-180.2-44.098c-3.7 1.845-4.5 3.93-4.5 7.728z"/><path d="m16717.2 224.263-67.9 130.003c.1 4.278 5.5 1.083 10.6-5.133 0 0 64.9-118.62 66.1-121.999 1.7-5.005-3.6-4.283-3.6-4.283l4.4-24.063 4.1-.515 9.7-38.875c0-9.164-5.9-11.79-8.2-11.169l-11.1 47.111 5.5 3.466-4.3 24.037z"/><path d="m17026.2 156.59 164.1 50.538c6 .814 6.6-2.296 9.2-4.597l47.7-55.77c-1.9-.63-.2-4.046-2.2-3.119l-220.6 6.939c-4.3 1.865-2.8 5.9 1.8 6.009z"/><path d="m17016.4 182.441 120.3 178.807c3.8 5.908 10.7 4.53 15.7-2.464l32.1-123.189c2-5.768-2.3-11.562-9.3-12.807l-154.3-47.934c-3.7 1.812-4.5 3.858-4.5 7.587z"/><path d="m17200.8 236.605-35.1 122.299c.1 8.4 5.9 8.939 10.9 1.945l75.3-168.859 1.6-3.7 1.4-3.145v-.091l3.8-8.23c3.4-5.382.8-14.713-3.8-14.281l-50.7 66.474-.1.148-1.6 3.744z"/><path d="m17541 161.312 147.3 54.567c5.7.53 8.8-1.467 9.2-3.439l75.7-54.479c-2-.627.3-4.443-1.7-3.521l-232.3.89c-4.4 1.857-2.9 5.873 1.8 5.982z"/><path d="m17530.5 186.539 116.1 180.893c3.7 5.84 10.3 5.484 15.3-1.43l20.5-122.615c1.4-5.892-3.2-11.006-9.4-12.338l-138.5-51.607c-3.8 1.792-4 3.411-4 7.097z"/><path d="m17699.6 243.596-22.9 121.678c.2 8.304 6.3 9.164 11.3 2.25l85.3-162.875 1.8-3.545 1.6-3.012v-.088l6.2-10.821c3.4-5.321-.1-13.489-5.8-12.015l-73.7 60.927c-.1.035-.2.168-.3.204-.5.274-1.9 3.035-2.1 3.394-.2.393-1.4 3.299-1.4 3.903z"/><path d="m18056 162.973 130.2 58.772c5.4.253 11-.659 9.1-2.318l103.8-53.46c-2-.626.7-4.853-1.3-3.931l-243.6-5.045c-4.4 1.857-2.9 5.873 1.8 5.982z"/><path d="m18044.8 187.702 111.6 183.765c3.8 5.801 10 6.448 15-.419l8.8-122.611c.7-6.042-4.1-10.51-9.6-11.933l-122.2-55.448c-3.8 1.779-3.6 2.985-3.6 6.646z"/><path d="m18198.2 247.861-10.5 121.623c.2 8.248 6.7 9.428 11.7 2.561l95.1-157.743 2.1-3.409 1.7-2.896.1-.084 8.5-13.415c3.4-5.284-1-12.348-7.8-9.844l-96.7 55.757c-.2.07-.4.19-.5.262-1 .542-2.2 2.352-2.6 3.065-.4.78-1.1 2.923-1.1 4.123z"/><path d="m18571.2 162.496 112.7 63.127c5.1-.019 13.3.138 9.2-1.216l131.7-52.626c-1.9-.628 1.2-5.275-.8-4.35l-254.6-10.936c-4.4 1.863-2.9 5.893 1.8 6.001z"/><path d="m18559.4 186.815 106.9 187.21c3.8 5.78 9.6 7.422 14.6.578l-2.9-123.008c0-6.209-5.1-10.053-9.8-11.571l-105.8-59.432c-3.8 1.773-3 2.574-3 6.223z"/><path d="m18696.7 250.24 2 121.967c.2 8.219 7.1 9.72 12 2.877l104.9-153.18 2.3-3.285 1.9-2.791.1-.082 10.9-16.025c3.4-5.266-2-11.26-9.9-7.727l-119.6 50.821c-.3.106-.5.213-.7.32-1.5.811-2.5 1.684-3.1 2.75-.6 1.166-.8 2.562-.8 4.355z"/><path d="m19085 163.519 106.7 63.331c5 .793 13.4.844 11.4-.523l136.1-51.569c-1-.714 1.3-5.181-.9-4.452l-254.6-12.625c-4.3 1.368-3 5.258 1.3 5.838z"/><path d="m19072.5 188.389 105.1 186.249c3.7 5.774 9.1 7.204 13 .943l-3.9-121.755c-.2-5.757-4.4-9.459-8.7-11.121l-101.8-61.068c-3.2.765-4.2 2.23-3.7 6.752z"/><path d="m19205.6 252.3 2.9 121.126c.1 8.211 7.1 9.854 12.1 3.018l108.9-151.785 2.3-3.21 2-2.727.1-.08 11.4-15.657c3.4-5.26-2-11.248-9.9-7.719l-125.2 49.617c-.2.106-.4.212-.6.32-1.6.81-2.5 1.682-3.1 2.746-.7 1.166-.9 2.56-.9 4.351z"/><path d="m19599.1 163.012 100 63.795c4.7 1.701 13.4 1.636 13.8.249l140.6-50.586c.1-.811 1.5-5.096-.8-4.581l-254.3-14.555c-4.2.822-3.1 4.572.7 5.678z"/><path d="m19586 188.591 102.8 185.875c3.8 5.789 8.5 6.988 11.3 1.352l-5.1-120.814c-.4-5.276-3.5-8.832-7.4-10.662l-97.2-63.118c-2.6-.355-5.5 1.856-4.4 7.367z"/><path d="m19714.2 253.281 3.7 120.642c.2 8.232 7.3 10.039 12.2 3.185l113.2-150.799 2.4-3.138 2.1-2.665.1-.078 11.9-15.305c3.4-5.275-1.9-11.278-9.9-7.74l-131.1 48.461c-.2.106-.5.213-.7.321-1.5.812-2.5 1.686-3 2.754-.7 1.168-.9 2.566-.9 4.362z"/><path d="m20115.3 157.205 88.5 65.484c4.4 3.209 13.4 2.952 17.6 1.514l146.9-49.717c1.8-.982 1.6-5.029-.8-4.86l-252-17.92c-3.9-.059-3.3 3.517-.2 5.499z"/><path d="m20101.2 184.314 98.5 187.974c3.7 5.898 7.6 6.737 8.5 2.042l-6.9-121.038c-.8-4.565-2.1-7.937-5.4-10.067l-89.1-67.39c-1.7-2.191-7.5 1.27-5.6 8.479z"/><path d="m20220.8 251.222 5.1 121.612c.1 8.387 7.3 10.487 12.3 3.504l119.1-151.386 2.6-3.066 2.2-2.604v-.076l12.7-14.953c3.4-5.374-2-11.49-9.8-7.885l-139.7 47.278c-.2.108-.4.217-.6.327-1.5.827-2.5 1.718-3.1 2.805-.6 1.191-.8 2.614-.8 4.444z"/><path d="m20628.9 151.788 84.7 66.387c4.2 3.728 13.3 3.406 18.8 1.942l148.4-49.684c2.3-1.044 1.7-5.034-.8-4.978l-250.6-19.136c-3.8-.352-3.3 3.184-.5 5.469z"/><path d="m20614.6 179.546 96.8 189.649c3.8 5.966 7.2 6.688 7.6 2.283l-7.4-121.74c-.9-4.353-1.7-7.68-4.8-9.921l-86.3-69.164c-1.4-2.814-8.1 1.081-5.9 8.893z"/><path d="m20731.1 247.542 5.5 122.566c.1 8.482 7.4 10.691 12.3 3.629l120.7-152.367 2.6-3.058 2.2-2.597.1-.076 12.9-14.913c3.3-5.435-2-11.62-9.8-7.975l-142 47.129c-.2.109-.4.219-.6.33-1.6.837-2.5 1.738-3.1 2.838-.6 1.204-.8 2.644-.8 4.494z"/><path d="m21142.1 145.736 82.2 67.126c4.1 4.059 13.2 3.696 19.4 2.213l149.2-49.802c2.6-1.085 1.7-5.049-.8-5.063l-249.4-19.939c-3.7-.535-3.3 2.986-.6 5.465z"/><path d="m21127.6 173.972 95.7 191.204c3.7 6.023 7 6.676 7 2.437l-7.7-122.508c-1-4.233-1.5-7.542-4.4-9.857l-84.5-70.449c-1.2-3.207-8.5.968-6.1 9.173z"/><path d="m21242.1 242.825 5.7 123.491c.1 8.564 7.4 10.847 12.3 3.716l121.4-153.391 2.7-3.061 2.2-2.6.1-.076 13-14.929c3.3-5.488-2-11.733-9.7-8.052l-143.3 47.166c-.2.11-.4.221-.6.334-1.5.845-2.4 1.754-3 2.864-.6 1.216-.8 2.67-.8 4.538z"/><path d="m21654.7 140.168 81.2 67.656c4.1 4.189 13.2 3.81 19.6 2.314l149.1-50.047c2.8-1.104 1.8-5.076-.8-5.115l-248.4-20.293c-3.7-.6-3.4 2.931-.7 5.485z"/><path d="m21640.1 168.684 95.2 192.526c3.7 6.067 6.9 6.7 6.8 2.499l-7.8-123.277c-1-4.21-1.4-7.526-4.2-9.877l-83.8-71.178c-1.1-3.354-8.6.933-6.2 9.307z"/><path d="m21753.8 238.115 5.8 124.317c.1 8.628 7.3 10.945 12.2 3.762l121.4-154.376 2.7-3.075 2.3-2.611v-.077l13-14.997c3.3-5.528-2-11.819-9.7-8.111l-143.3 47.374c-.2.111-.4.223-.6.336-1.5.852-2.5 1.768-3 2.886-.7 1.225-.8 2.69-.8 4.572z"/><path d="m22164.6 136.998 85.4 66.851c4 3.95 12.5 3.583 18.8 1.999l146.1-50.826c3.1-1.237 1.9-5.577-.9-5.538l-248.5-18.479c-4-.513-3.9 3.401-.9 5.993z"/><path d="m22150.6 165.689 97.1 192.844c3.7 6.1 7.5 6.331 7.4 1.985l-7-124.328c-1-4.531-1.5-7.692-4.5-10.017l-86.9-69.752c-1.4-3.282-8.7 1.003-6.1 9.268z"/><path d="m22267.5 233.861 5.3 125.343c.1 8.673 7.4 10.927 12.3 3.706l119.2-155.829 2.6-3.128 2.3-2.657v-.078l12.7-15.258c3.3-5.557-1.9-11.881-9.6-8.154l-140.3 48.22c-.3.111-.5.224-.7.338-1.5.855-2.4 1.776-3 2.901-.6 1.231-.8 2.703-.8 4.596z"/><path d="m22673.5 135.523 91.3 65.455c3.8 3.601 11.7 3.249 17.7 1.548l142.3-51.719c3.7-1.422 2.1-6.26-1.1-6.114l-249-15.853c-4.5-.388-4.7 4.05-1.2 6.683z"/><path d="m22660.1 164.347 100.1 192.533c3.7 6.12 8.4 5.786 8.2 1.252l-6-125.316c-.8-4.966-1.5-7.894-4.7-10.174l-91.4-67.471c-1.9-3.168-8.9 1.096-6.2 9.176z"/><path d="m22782 230.479 4.4 126.291c.2 8.703 7.7 10.859 12.5 3.613l116.4-157.256 2.6-3.191 2.1-2.711.1-.079 12.4-15.565c3.3-5.576-2-11.922-9.7-8.182l-136.4 49.218c-.2.112-.4.225-.6.339-1.5.859-2.4 1.783-3 2.911-.6 1.236-.8 2.713-.8 4.612z"/><path d="m23182.3 135.173 97.3 63.913c3.8 3.235 10.9 2.901 16.7 1.082l138.6-52.554c4.1-1.608 2.2-6.951-1.4-6.695l-249.8-13.127c-4.9-.261-5.4 4.709-1.4 7.381z"/><path d="m23169.5 164.087 103.2 191.898c3.7 6.132 9.2 5.218 9 .498l-4.9-126.127c-.6-5.405-1.5-8.09-5-10.32l-96.1-65.016c-2.4-3.045-9.1 1.191-6.2 9.067z"/><path d="m23296.5 228.014 3.7 127.06c.1 8.719 7.8 10.771 12.6 3.512l113.6-158.468 2.5-3.25 2.1-2.762.1-.08 12-15.856c3.3-5.586-1.9-11.944-9.6-8.197l-132.6 50.165c-.2.112-.4.225-.6.339-1.5.861-2.4 1.787-3 2.917-.6 1.238-.8 2.718-.8 4.62z"/><path d="m23691.3 135.555 102.9 62.457c3.6 2.903 10.1 2.585 15.7.662l135.2-53.246c4.7-1.774 2.4-7.565-1.5-7.209l-250.6-10.664c-5.4-.146-6.2 5.295-1.7 8z"/><path d="m23679.1 164.517 106.1 191.117c3.6 6.136 9.9 4.701 9.7-.181l-3.9-126.717c-.6-5.793-1.7-8.256-5.3-10.439l-100.4-62.739c-2.8-2.932-9.3 1.275-6.2 8.959z"/><path d="m23810.7 226.394 3 127.611c.1 8.724 7.9 10.68 12.8 3.417l111.2-159.383 2.4-3.3 2-2.804.1-.081 11.8-16.099c3.3-5.59-2-11.951-9.7-8.202l-129.1 50.96c-.3.112-.5.225-.7.339-1.5.861-2.4 1.788-3 2.919-.6 1.238-.8 2.719-.8 4.623z"/><path d="m24200.7 136.497 107.6 61.146c3.5 2.618 9.5 2.314 15 .305l132.5-53.773c5-1.914 2.5-8.08-1.7-7.64l-251.4-8.556c-5.8-.047-6.9 5.789-2 8.518z"/><path d="m24189 165.467 108.5 190.234c3.7 6.131 10.6 4.255 10.4-.759l-3.1-127.074c-.4-6.116-1.7-8.388-5.5-10.528l-104.1-60.73c-3.1-2.832-9.5 1.345-6.2 8.857z"/><path d="m24324.6 225.527 2.4 127.934c.1 8.718 8.1 10.591 12.9 3.332l109.2-159.978 2.4-3.338 2-2.837.1-.083 11.5-16.287c3.3-5.586-2-11.943-9.7-8.196l-126.3 51.577c-.3.113-.5.226-.7.34-1.5.86-2.4 1.786-3 2.917-.6 1.237-.8 2.717-.8 4.619z"/><path d="m24710.5 137.861 111.6 59.992c3.5 2.378 8.9 2.086 14.3.007l130.3-54.154c5.4-2.027 2.6-8.496-1.8-7.988l-252.3-6.796c-6.1.034-7.3 6.193-2.1 8.939z"/><path d="m24699.2 166.807 110.6 189.295c3.7 6.121 11.2 3.881 10.9-1.237l-2.4-127.234c-.4-6.378-1.8-8.488-5.7-10.591l-107.3-58.996c-3.4-2.745-9.6 1.402-6.1 8.763z"/><path d="m24838.2 225.294 1.9 128.063c.1 8.704 8.2 10.506 13.1 3.259l107.5-160.3 2.4-3.367 1.9-2.861.1-.083 11.3-16.427c3.3-5.577-1.9-11.924-9.6-8.183l-124.1 52.036c-.3.111-.5.224-.7.338-1.5.859-2.4 1.784-3 2.913-.6 1.235-.8 2.713-.8 4.612z"/><path d="m25219 141.827 117.8 58.138c3.3 2.016 8.1 1.742 13.3-.435l127.2-54.587c5.9-2.191 2.7-9.097-2.1-8.487l-253.8-4.171c-6.5.156-8.1 6.777-2.4 9.542z"/><path d="m25208.2 170.667 114 187.451c3.7 6.092 12 3.316 11.8-1.944l-1.5-127.166c-.2-6.752-1.8-8.617-6-10.659l-112.1-56.284c-3.8-2.611-9.8 1.482-6.2 8.602z"/><path d="m25352.6 226.683 1.2 127.95c.1 8.663 8.3 10.353 13.2 3.141l105.3-160.394 2.3-3.401 1.9-2.89.1-.084 11-16.593c3.3-5.551-1.9-11.867-9.7-8.144l-120.8 52.589c-.3.112-.5.224-.7.337-1.5.855-2.4 1.776-3 2.899-.6 1.229-.8 2.7-.8 4.59z"/><path d="m25729.7 144.134 120.1 57.414c3.2 1.884 7.8 1.617 12.9-.592l126.1-54.687c6.1-2.247 2.8-9.301-2.1-8.655l-254.5-3.228c-6.7.198-8.4 6.978-2.5 9.748z"/><path d="m25719.1 172.906 115.3 186.598c3.6 6.075 12.3 3.111 12-2.194l-1.1-127.011c-.2-6.879-1.9-8.655-6.1-10.672l-113.9-55.257c-4-2.561-9.9 1.509-6.2 8.536z"/><path d="m25865.5 227.98.9 127.778c.1 8.639 8.4 10.288 13.3 3.096l104.5-160.263 2.3-3.41 1.9-2.897v-.084l11-16.636c3.3-5.535-2-11.834-9.7-8.122l-119.8 52.734c-.2.111-.4.223-.6.336-1.5.853-2.4 1.771-3 2.891-.6 1.226-.8 2.693-.8 4.577z"/><path d="m26240.6 146.445 121.9 56.814c3.2 1.78 7.6 1.518 12.7-.716l125.3-54.731c6.3-2.29 2.9-9.457-2.2-8.784l-255.1-2.486c-6.9.232-8.7 7.132-2.6 9.903z"/><path d="m26230.2 175.148 116.2 185.818c3.7 6.059 12.6 2.949 12.3-2.39l-.7-126.813c-.2-6.974-1.9-8.679-6.2-10.676l-115.4-54.418c-4.1-2.519-10 1.529-6.2 8.479z"/><path d="m26378.2 229.45.6 127.567c.2 8.615 8.6 10.231 13.4 3.059l104-160.065 2.2-3.414 1.9-2.902.1-.084 10.9-16.66c3.3-5.519-2-11.801-9.7-8.099l-119 52.816c-.2.11-.4.222-.6.335-1.5.85-2.4 1.765-3 2.882-.6 1.223-.8 2.686-.8 4.565z"/><path d="m26751.8 148.645 123.3 56.327c3.2 1.7 7.4 1.443 12.5-.808l124.7-54.74c6.4-2.321 2.9-9.569-2.2-8.876l-255.7-1.92c-7 .258-8.9 7.246-2.6 10.017z"/><path d="m26741.4 177.28 117.1 185.133c3.7 6.042 12.8 2.822 12.5-2.538l-.6-126.6c-.1-7.043-1.9-8.693-6.2-10.674l-116.6-53.752c-4.2-2.487-10 1.544-6.2 8.431z"/><path d="m26890.7 230.968.5 127.343c.1 8.592 8.6 10.182 13.4 3.029l103.6-159.835 2.2-3.416 1.9-2.904v-.084l10.9-16.669c3.3-5.505-2-11.77-9.7-8.078l-118.3 52.852c-.3.11-.5.222-.7.334-1.5.848-2.4 1.761-3 2.875-.6 1.22-.8 2.678-.8 4.553z"/><path d="m27263.1 150.617 124.4 55.954c3.2 1.641 7.3 1.387 12.4-.876l124.3-54.725c6.4-2.344 2.9-9.649-2.3-8.941l-256.1-1.508c-7.1.277-9 7.327-2.7 10.096z"/><path d="m27252.9 179.193 117.7 184.569c3.7 6.029 12.9 2.73 12.6-2.645l-.4-126.4c-.1-7.091-1.9-8.7-6.3-10.669l-117.4-53.249c-4.3-2.462-10.1 1.555-6.2 8.394z"/><path d="m27403.1 232.415.4 127.136c.1 8.572 8.6 10.143 13.5 3.005l103.2-159.61 2.2-3.417 1.9-2.903.1-.084 10.8-16.67c3.3-5.493-2-11.745-9.8-8.06l-117.8 52.859c-.3.11-.5.221-.7.333-1.5.846-2.4 1.757-3 2.869-.6 1.217-.8 2.672-.8 4.542z"/><path d="m27774.6 152.222 125.2 55.696c3.2 1.6 7.2 1.349 12.3-.922l124-54.709c6.5-2.357 2.9-9.7-2.3-8.982l-256.5-1.231c-7 .289-9 7.379-2.7 10.148z"/><path d="m27764.5 180.754 118.1 184.165c3.7 6.019 13 2.668 12.7-2.715l-.3-126.25c-.1-7.121-1.9-8.703-6.3-10.663l-118-52.904c-4.3-2.445-10.1 1.561-6.2 8.367z"/><path d="m27915.4 233.657.3 126.978c.1 8.559 8.6 10.116 13.5 2.99l103-159.438 2.2-3.417 1.9-2.903.1-.084 10.8-16.669c3.3-5.483-2-11.725-9.8-8.046l-117.6 52.856c-.2.111-.4.222-.6.334-1.5.844-2.5 1.754-3 2.864-.7 1.214-.8 2.667-.8 4.535z"/><path d="m28286.4 153.263 125.6 55.564c3.1 1.578 7.2 1.328 12.2-.948l123.8-54.714c6.6-2.366 3-9.732-2.3-9.008l-256.6-1.074c-7.1.296-9.1 7.411-2.7 10.18z"/><path d="m28276.3 181.778 118.3 183.985c3.7 6.015 13.1 2.633 12.8-2.757l-.2-126.197c-.1-7.141-2-8.708-6.4-10.664l-118.3-52.721c-4.4-2.437-10.1 1.565-6.2 8.354z"/><path d="m28427.5 234.513.3 126.924c.1 8.553 8.6 10.103 13.5 2.982l102.9-159.384 2.2-3.417 1.9-2.904.1-.084 10.7-16.672c3.4-5.48-1.9-11.717-9.7-8.041l-117.4 52.869c-.2.11-.5.221-.7.333-1.5.844-2.4 1.753-3 2.862-.6 1.214-.8 2.666-.8 4.532z"/><path d="m28798.3 153.623 125.7 55.534c3.2 1.572 7.2 1.322 12.2-.956l123.8-54.727c6.6-2.37 2.9-9.745-2.3-9.019l-256.6-1.024c-7.2.298-9.2 7.423-2.8 10.192z"/><path d="m28788.2 182.139 118.4 183.967c3.7 6.015 13.1 2.623 12.8-2.77l-.2-126.208c-.1-7.149-1.9-8.711-6.4-10.666l-118.4-52.675c-4.3-2.434-10.1 1.567-6.2 8.352z"/><path d="m28939.5 234.831.3 126.933c.1 8.553 8.6 10.101 13.5 2.98l102.9-159.4 2.2-3.418 1.9-2.905v-.084l10.8-16.677c3.3-5.48-1.9-11.717-9.7-8.041l-117.4 52.885c-.2.11-.4.221-.6.333-1.5.844-2.5 1.753-3 2.862-.7 1.214-.9 2.666-.9 4.532z"/><path d="m29310.3 153.623 125.7 55.534c3.2 1.572 7.2 1.322 12.2-.956l123.8-54.727c6.6-2.37 2.9-9.745-2.3-9.019l-256.6-1.024c-7.2.298-9.2 7.423-2.8 10.192z"/><path d="m29300.2 182.139 118.4 183.967c3.7 6.015 13.1 2.623 12.8-2.77l-.2-126.208c-.1-7.149-1.9-8.711-6.4-10.666l-118.4-52.675c-4.3-2.434-10.1 1.567-6.2 8.352z"/><path d="m29451.5 234.831.3 126.933c.1 8.553 8.6 10.101 13.5 2.98l102.9-159.4 2.2-3.418 1.9-2.905v-.084l10.8-16.677c3.3-5.48-1.9-11.717-9.7-8.041l-117.4 52.885c-.2.11-.4.221-.6.333-1.5.844-2.5 1.753-3 2.862-.7 1.214-.9 2.666-.9 4.532z"/><path d="m29822.3 153.623 125.7 55.534c3.2 1.572 7.2 1.322 12.2-.956l123.8-54.727c6.6-2.37 2.9-9.745-2.3-9.019l-256.6-1.024c-7.2.298-9.2 7.423-2.8 10.192z"/><path d="m29812.2 182.139 118.4 183.967c3.7 6.015 13.1 2.623 12.8-2.77l-.2-126.208c-.1-7.149-1.9-8.711-6.4-10.666l-118.4-52.675c-4.3-2.434-10.1 1.567-6.2 8.352z"/><path d="m29963.5 234.831.3 126.933c.1 8.553 8.6 10.101 13.5 2.98l102.9-159.4 2.2-3.418 1.9-2.905v-.084l10.8-16.677c3.3-5.48-1.9-11.717-9.7-8.041l-117.4 52.885c-.2.11-.4.221-.6.333-1.5.844-2.5 1.753-3 2.862-.7 1.214-.9 2.666-.9 4.532z"/><path d="m30334.3 153.623 125.7 55.534c3.2 1.572 7.2 1.322 12.2-.956l123.8-54.727c6.6-2.37 2.9-9.745-2.3-9.019l-256.6-1.024c-7.2.298-9.2 7.423-2.8 10.192z"/><path d="m30324.2 182.139 118.4 183.967c3.7 6.015 13.1 2.623 12.8-2.77l-.2-126.208c-.1-7.149-1.9-8.711-6.4-10.666l-118.4-52.675c-4.3-2.434-10.1 1.567-6.2 8.352z"/><path d="m30475.5 234.831.3 126.933c.1 8.553 8.6 10.101 13.5 2.98l102.9-159.4 2.2-3.418 1.9-2.905v-.084l10.8-16.677c3.3-5.48-1.9-11.717-9.7-8.041l-117.4 52.885c-.2.11-.4.221-.6.333-1.5.844-2.5 1.753-3 2.862-.7 1.214-.9 2.666-.9 4.532z"/></g></svg>